<mxfile host="app.diagrams.net" modified="2021-06-08T13:01:18.927Z" agent="5.0 (Windows NT 10.0; Win64; x64) AppleWebKit/537.36 (KHTML, like Gecko) Chrome/90.0.4430.85 Safari/537.36" etag="LVfhIoYL9-QtDQG1tQeU" version="14.7.6" type="github">
  <diagram id="kgpKYQtTHZ0yAKxKKP6v" name="Page-1">
    <mxGraphModel dx="1422" dy="762" grid="1" gridSize="10" guides="1" tooltips="1" connect="1" arrows="1" fold="1" page="1" pageScale="1" pageWidth="850" pageHeight="1100" math="0" shadow="0">
      <root>
        <mxCell id="0" />
        <mxCell id="1" parent="0" />
        <mxCell id="3nuBFxr9cyL0pnOWT2aG-1" value="activity-follwer-MQ" style="shape=umlLifeline;perimeter=lifelinePerimeter;container=1;collapsible=0;recursiveResize=0;rounded=0;shadow=0;strokeWidth=1;" parent="1" vertex="1">
          <mxGeometry x="100" y="80" width="120" height="760" as="geometry" />
        </mxCell>
        <mxCell id="3nuBFxr9cyL0pnOWT2aG-2" value="" style="points=[];perimeter=orthogonalPerimeter;rounded=0;shadow=0;strokeWidth=1;" parent="3nuBFxr9cyL0pnOWT2aG-1" vertex="1">
          <mxGeometry x="45" y="70" width="10" height="690" as="geometry" />
        </mxCell>
        <mxCell id="3nuBFxr9cyL0pnOWT2aG-3" value="收到扩散写消息" style="verticalAlign=bottom;startArrow=oval;endArrow=block;startSize=8;shadow=0;strokeWidth=1;" parent="3nuBFxr9cyL0pnOWT2aG-1" target="3nuBFxr9cyL0pnOWT2aG-2" edge="1">
          <mxGeometry relative="1" as="geometry">
            <mxPoint x="-15" y="70" as="sourcePoint" />
          </mxGeometry>
        </mxCell>
        <mxCell id="3nuBFxr9cyL0pnOWT2aG-4" value="" style="points=[];perimeter=orthogonalPerimeter;rounded=0;shadow=0;strokeWidth=1;" parent="3nuBFxr9cyL0pnOWT2aG-1" vertex="1">
          <mxGeometry x="60" y="140" width="10" height="30" as="geometry" />
        </mxCell>
        <mxCell id="8NJGGLODSZkwPRBtzhF9-16" value="" style="html=1;points=[];perimeter=orthogonalPerimeter;" vertex="1" parent="3nuBFxr9cyL0pnOWT2aG-1">
          <mxGeometry x="60" y="205" width="10" height="70" as="geometry" />
        </mxCell>
        <mxCell id="8NJGGLODSZkwPRBtzhF9-21" value="" style="html=1;points=[];perimeter=orthogonalPerimeter;" vertex="1" parent="3nuBFxr9cyL0pnOWT2aG-1">
          <mxGeometry x="60" y="300" width="10" height="80" as="geometry" />
        </mxCell>
        <mxCell id="8NJGGLODSZkwPRBtzhF9-28" value="" style="html=1;points=[];perimeter=orthogonalPerimeter;" vertex="1" parent="3nuBFxr9cyL0pnOWT2aG-1">
          <mxGeometry x="60" y="440" width="10" height="80" as="geometry" />
        </mxCell>
        <mxCell id="8NJGGLODSZkwPRBtzhF9-32" value="" style="html=1;points=[];perimeter=orthogonalPerimeter;" vertex="1" parent="3nuBFxr9cyL0pnOWT2aG-1">
          <mxGeometry x="60" y="550" width="10" height="70" as="geometry" />
        </mxCell>
        <mxCell id="8NJGGLODSZkwPRBtzhF9-31" value="" style="verticalAlign=bottom;endArrow=open;dashed=1;endSize=8;shadow=0;strokeWidth=1;" edge="1" parent="3nuBFxr9cyL0pnOWT2aG-1">
          <mxGeometry relative="1" as="geometry">
            <mxPoint x="70" y="510" as="targetPoint" />
            <mxPoint x="560" y="510" as="sourcePoint" />
          </mxGeometry>
        </mxCell>
        <mxCell id="8NJGGLODSZkwPRBtzhF9-34" value="" style="verticalAlign=bottom;endArrow=open;dashed=1;endSize=8;shadow=0;strokeWidth=1;" edge="1" parent="3nuBFxr9cyL0pnOWT2aG-1">
          <mxGeometry relative="1" as="geometry">
            <mxPoint x="70" y="610" as="targetPoint" />
            <mxPoint x="680" y="610" as="sourcePoint" />
          </mxGeometry>
        </mxCell>
        <mxCell id="3nuBFxr9cyL0pnOWT2aG-5" value="分布式锁" style="shape=umlLifeline;perimeter=lifelinePerimeter;container=1;collapsible=0;recursiveResize=0;rounded=0;shadow=0;strokeWidth=1;" parent="1" vertex="1">
          <mxGeometry x="250" y="80" width="100" height="660" as="geometry" />
        </mxCell>
        <mxCell id="3nuBFxr9cyL0pnOWT2aG-6" value="" style="points=[];perimeter=orthogonalPerimeter;rounded=0;shadow=0;strokeWidth=1;" parent="3nuBFxr9cyL0pnOWT2aG-5" vertex="1">
          <mxGeometry x="45" y="80" width="10" height="30" as="geometry" />
        </mxCell>
        <mxCell id="3nuBFxr9cyL0pnOWT2aG-8" value="Get lock" style="verticalAlign=bottom;endArrow=block;entryX=0;entryY=0;shadow=0;strokeWidth=1;" parent="1" source="3nuBFxr9cyL0pnOWT2aG-2" target="3nuBFxr9cyL0pnOWT2aG-6" edge="1">
          <mxGeometry relative="1" as="geometry">
            <mxPoint x="275" y="160" as="sourcePoint" />
          </mxGeometry>
        </mxCell>
        <mxCell id="8NJGGLODSZkwPRBtzhF9-1" value="商品库" style="shape=umlLifeline;perimeter=lifelinePerimeter;container=1;collapsible=0;recursiveResize=0;rounded=0;shadow=0;strokeWidth=1;" vertex="1" parent="1">
          <mxGeometry x="370" y="80" width="100" height="660" as="geometry" />
        </mxCell>
        <mxCell id="8NJGGLODSZkwPRBtzhF9-2" value="" style="points=[];perimeter=orthogonalPerimeter;rounded=0;shadow=0;strokeWidth=1;" vertex="1" parent="8NJGGLODSZkwPRBtzhF9-1">
          <mxGeometry x="45" y="140" width="10" height="30" as="geometry" />
        </mxCell>
        <mxCell id="8NJGGLODSZkwPRBtzhF9-3" value="关系服务" style="shape=umlLifeline;perimeter=lifelinePerimeter;container=1;collapsible=0;recursiveResize=0;rounded=0;shadow=0;strokeWidth=1;" vertex="1" parent="1">
          <mxGeometry x="490" y="80" width="100" height="660" as="geometry" />
        </mxCell>
        <mxCell id="8NJGGLODSZkwPRBtzhF9-4" value="" style="points=[];perimeter=orthogonalPerimeter;rounded=0;shadow=0;strokeWidth=1;" vertex="1" parent="8NJGGLODSZkwPRBtzhF9-3">
          <mxGeometry x="45" y="220" width="10" height="40" as="geometry" />
        </mxCell>
        <mxCell id="8NJGGLODSZkwPRBtzhF9-5" value="活动商品" style="shape=umlLifeline;perimeter=lifelinePerimeter;container=1;collapsible=0;recursiveResize=0;rounded=0;shadow=0;strokeWidth=1;" vertex="1" parent="1">
          <mxGeometry x="610" y="80" width="100" height="660" as="geometry" />
        </mxCell>
        <mxCell id="8NJGGLODSZkwPRBtzhF9-6" value="" style="points=[];perimeter=orthogonalPerimeter;rounded=0;shadow=0;strokeWidth=1;" vertex="1" parent="8NJGGLODSZkwPRBtzhF9-5">
          <mxGeometry x="45" y="310" width="10" height="210" as="geometry" />
        </mxCell>
        <mxCell id="8NJGGLODSZkwPRBtzhF9-7" value="Redis" style="shape=umlLifeline;perimeter=lifelinePerimeter;container=1;collapsible=0;recursiveResize=0;rounded=0;shadow=0;strokeWidth=1;" vertex="1" parent="1">
          <mxGeometry x="730" y="80" width="100" height="670" as="geometry" />
        </mxCell>
        <mxCell id="8NJGGLODSZkwPRBtzhF9-8" value="" style="points=[];perimeter=orthogonalPerimeter;rounded=0;shadow=0;strokeWidth=1;" vertex="1" parent="8NJGGLODSZkwPRBtzhF9-7">
          <mxGeometry x="45" y="550" width="10" height="70" as="geometry" />
        </mxCell>
        <mxCell id="8NJGGLODSZkwPRBtzhF9-9" value="成功，任务开始" style="verticalAlign=bottom;endArrow=open;dashed=1;endSize=8;exitX=0;exitY=0.95;shadow=0;strokeWidth=1;" edge="1" parent="1">
          <mxGeometry relative="1" as="geometry">
            <mxPoint x="160" y="189.99999999999977" as="targetPoint" />
            <mxPoint x="290" y="189.99999999999977" as="sourcePoint" />
          </mxGeometry>
        </mxCell>
        <mxCell id="8NJGGLODSZkwPRBtzhF9-13" value="查找该商品相关数据" style="verticalAlign=bottom;endArrow=block;shadow=0;strokeWidth=1;exitX=1.3;exitY=-0.033;exitDx=0;exitDy=0;exitPerimeter=0;" edge="1" parent="1" source="3nuBFxr9cyL0pnOWT2aG-4" target="8NJGGLODSZkwPRBtzhF9-1">
          <mxGeometry x="0.3021" y="8" relative="1" as="geometry">
            <mxPoint x="170" y="220" as="sourcePoint" />
            <mxPoint x="350" y="222" as="targetPoint" />
            <mxPoint as="offset" />
          </mxGeometry>
        </mxCell>
        <mxCell id="8NJGGLODSZkwPRBtzhF9-14" value="" style="verticalAlign=bottom;endArrow=open;dashed=1;endSize=8;shadow=0;strokeWidth=1;" edge="1" parent="1" source="8NJGGLODSZkwPRBtzhF9-1">
          <mxGeometry relative="1" as="geometry">
            <mxPoint x="160" y="249.99999999999977" as="targetPoint" />
            <mxPoint x="290" y="249.99999999999977" as="sourcePoint" />
          </mxGeometry>
        </mxCell>
        <mxCell id="8NJGGLODSZkwPRBtzhF9-17" value="分页查询关联关系" style="verticalAlign=bottom;endArrow=block;shadow=0;strokeWidth=1;entryX=0.5;entryY=0.05;entryDx=0;entryDy=0;entryPerimeter=0;exitX=1;exitY=0.2;exitDx=0;exitDy=0;exitPerimeter=0;" edge="1" parent="1" source="8NJGGLODSZkwPRBtzhF9-16" target="8NJGGLODSZkwPRBtzhF9-4">
          <mxGeometry x="0.1053" y="10" relative="1" as="geometry">
            <mxPoint x="190" y="302" as="sourcePoint" />
            <mxPoint x="520" y="302" as="targetPoint" />
            <mxPoint as="offset" />
            <Array as="points">
              <mxPoint x="460" y="302" />
            </Array>
          </mxGeometry>
        </mxCell>
        <mxCell id="8NJGGLODSZkwPRBtzhF9-18" value="" style="verticalAlign=bottom;endArrow=open;dashed=1;endSize=8;shadow=0;strokeWidth=1;exitX=0.5;exitY=1.075;exitDx=0;exitDy=0;exitPerimeter=0;entryX=0.9;entryY=0.814;entryDx=0;entryDy=0;entryPerimeter=0;" edge="1" parent="1" source="8NJGGLODSZkwPRBtzhF9-4" target="8NJGGLODSZkwPRBtzhF9-16">
          <mxGeometry relative="1" as="geometry">
            <mxPoint x="190" y="340" as="targetPoint" />
            <mxPoint x="530" y="340" as="sourcePoint" />
          </mxGeometry>
        </mxCell>
        <mxCell id="8NJGGLODSZkwPRBtzhF9-20" value="根据actGoodsId和actId查询活动商品" style="verticalAlign=bottom;endArrow=block;shadow=0;strokeWidth=1;exitX=0.9;exitY=0.15;exitDx=0;exitDy=0;exitPerimeter=0;" edge="1" parent="1" source="8NJGGLODSZkwPRBtzhF9-21">
          <mxGeometry x="0.2198" y="10" relative="1" as="geometry">
            <mxPoint x="210" y="390" as="sourcePoint" />
            <mxPoint x="650" y="390" as="targetPoint" />
            <mxPoint as="offset" />
            <Array as="points">
              <mxPoint x="510" y="390" />
            </Array>
          </mxGeometry>
        </mxCell>
        <mxCell id="8NJGGLODSZkwPRBtzhF9-23" value="" style="verticalAlign=bottom;endArrow=open;dashed=1;endSize=8;shadow=0;strokeWidth=1;" edge="1" parent="1">
          <mxGeometry relative="1" as="geometry">
            <mxPoint x="170" y="440" as="targetPoint" />
            <mxPoint x="660" y="440" as="sourcePoint" />
          </mxGeometry>
        </mxCell>
        <mxCell id="8NJGGLODSZkwPRBtzhF9-30" value="执行同步逻辑" style="verticalAlign=bottom;endArrow=block;shadow=0;strokeWidth=1;exitX=1.1;exitY=0.05;exitDx=0;exitDy=0;exitPerimeter=0;" edge="1" parent="1" source="8NJGGLODSZkwPRBtzhF9-28">
          <mxGeometry x="-0.0143" y="10" relative="1" as="geometry">
            <mxPoint x="200" y="530" as="sourcePoint" />
            <mxPoint x="657" y="520" as="targetPoint" />
            <mxPoint as="offset" />
            <Array as="points">
              <mxPoint x="517" y="520" />
            </Array>
          </mxGeometry>
        </mxCell>
        <mxCell id="8NJGGLODSZkwPRBtzhF9-33" value="更新任务进度" style="verticalAlign=bottom;endArrow=block;shadow=0;strokeWidth=1;entryX=0.1;entryY=0.043;entryDx=0;entryDy=0;entryPerimeter=0;exitX=0.6;exitY=0.029;exitDx=0;exitDy=0;exitPerimeter=0;" edge="1" parent="1" source="8NJGGLODSZkwPRBtzhF9-32" target="8NJGGLODSZkwPRBtzhF9-8">
          <mxGeometry x="0.0173" y="10" relative="1" as="geometry">
            <mxPoint x="180" y="633" as="sourcePoint" />
            <mxPoint x="657" y="630" as="targetPoint" />
            <mxPoint as="offset" />
            <Array as="points">
              <mxPoint x="230" y="630" />
              <mxPoint x="270" y="630" />
              <mxPoint x="320" y="630" />
              <mxPoint x="517" y="630" />
            </Array>
          </mxGeometry>
        </mxCell>
        <mxCell id="8NJGGLODSZkwPRBtzhF9-35" value="" style="html=1;points=[];perimeter=orthogonalPerimeter;" vertex="1" parent="1">
          <mxGeometry x="150" y="280" width="10" height="440" as="geometry" />
        </mxCell>
        <mxCell id="8NJGGLODSZkwPRBtzhF9-37" value="" style="html=1;points=[];perimeter=orthogonalPerimeter;" vertex="1" parent="1">
          <mxGeometry x="295" y="740" width="10" height="80" as="geometry" />
        </mxCell>
        <mxCell id="8NJGGLODSZkwPRBtzhF9-38" value="release lock" style="html=1;verticalAlign=bottom;endArrow=block;entryX=0;entryY=0;exitX=1.5;exitY=0.855;exitDx=0;exitDy=0;exitPerimeter=0;" edge="1" target="8NJGGLODSZkwPRBtzhF9-37" parent="1" source="3nuBFxr9cyL0pnOWT2aG-2">
          <mxGeometry relative="1" as="geometry">
            <mxPoint x="170" y="740" as="sourcePoint" />
          </mxGeometry>
        </mxCell>
        <mxCell id="8NJGGLODSZkwPRBtzhF9-39" value="任务完成" style="html=1;verticalAlign=bottom;endArrow=open;dashed=1;endSize=8;exitX=0;exitY=0.95;entryX=0.508;entryY=0.967;entryDx=0;entryDy=0;entryPerimeter=0;" edge="1" source="8NJGGLODSZkwPRBtzhF9-37" parent="1" target="3nuBFxr9cyL0pnOWT2aG-1">
          <mxGeometry relative="1" as="geometry">
            <mxPoint x="170" y="816" as="targetPoint" />
          </mxGeometry>
        </mxCell>
      </root>
    </mxGraphModel>
  </diagram>
</mxfile>
